<svg width="100" height="30" viewBox="0 0 100 30" fill="none" xmlns="http://www.w3.org/2000/svg">
  <path d="M20.2 15.5c0-2.8-2.2-5-5-5s-5 2.2-5 5 2.2 5 5 5 5-2.3 5-5zm-5 15.4c-8.5 0-15.4-6.9-15.4-15.4S6.7.1 15.2.1s15.4 6.9 15.4 15.4-6.9 15.4-15.4 15.4z" fill="currentColor"/>
  <path d="M44.3 8.5h5.7v16.8h-5.7V8.5zm0-6.8h5.7v4.5h-5.7V1.7zm26.8 6.8h5.7v16.8h-5.7V8.5zm0-6.8h5.7v4.5h-5.7V1.7zM35.9 8.5h5.7v2.4c1.1-1.8 3.1-2.9 5.3-2.9 4.8 0 7.2 3.1 7.2 7.9v9.3h-5.7v-8.1c0-2.4-1.2-3.9-3.4-3.9-2.1 0-3.4 1.5-3.4 3.9v8.1h-5.7V8.5zm26.8 0h5.7v2.4c1.1-1.8 3.1-2.9 5.3-2.9 4.8 0 7.2 3.1 7.2 7.9v9.3h-5.7v-8.1c0-2.4-1.2-3.9-3.4-3.9-2.1 0-3.4 1.5-3.4 3.9v8.1h-5.7V8.5z" fill="currentColor"/>
</svg>
